<svg xmlns="http://www.w3.org/2000/svg" viewBox="0 0 512 512">
  <!-- Background -->
  <rect width="512" height="512" rx="80" fill="#020b14"/>
  
  <!-- Outer glow ring -->
  <circle cx="256" cy="256" r="180" fill="none" stroke="#00d4ff" stroke-width="3" opacity="0.3"/>
  <circle cx="256" cy="256" r="160" fill="none" stroke="#00d4ff" stroke-width="1" opacity="0.15"/>

  <!-- Water drop shape -->
  <path d="M256 100 C256 100 160 220 160 300 C160 355 203 400 256 400 C309 400 352 355 352 300 C352 220 256 100 256 100Z" fill="#00d4ff" opacity="0.15"/>
  <path d="M256 100 C256 100 160 220 160 300 C160 355 203 400 256 400 C309 400 352 355 352 300 C352 220 256 100 256 100Z" fill="none" stroke="#00d4ff" stroke-width="4" opacity="0.9"/>

  <!-- Microplastic particles inside drop -->
  <circle cx="256" cy="280" r="8" fill="#00ff88" opacity="0.9"/>
  <circle cx="226" cy="310" r="5" fill="#00d4ff" opacity="0.8"/>
  <circle cx="286" cy="320" r="6" fill="#ffaa00" opacity="0.8"/>
  <circle cx="240" cy="340" r="4" fill="#ff3d5a" opacity="0.8"/>
  <circle cx="272" cy="295" r="5" fill="#00ff88" opacity="0.7"/>

  <!-- HW text -->
  <text x="256" y="470" font-family="monospace" font-size="48" font-weight="bold" fill="#00d4ff" text-anchor="middle" opacity="0.9">HW</text>
</svg>
